<svg width="90" height="29" viewBox="0 0 90 29" fill="none" xmlns="http://www.w3.org/2000/svg">
<path d="M0.48584 2.17773H7.49365L23.2803 21.5444V6.65283C23.2803 5.06592 23.1025 4.07568 22.7471 3.68213C22.2773 3.14893 21.5347 2.88232 20.519 2.88232H19.624V2.17773H28.6123V2.88232H27.6982C26.6064 2.88232 25.832 3.2124 25.375 3.87256C25.0957 4.27881 24.9561 5.20557 24.9561 6.65283V28.4189H24.2705L7.24609 7.62402V23.5249C7.24609 25.1118 7.41748 26.1021 7.76025 26.4956C8.24268 27.0288 8.98535 27.2954 9.98828 27.2954H10.9023V28H1.91406V27.2954H2.80908C3.91357 27.2954 4.69434 26.9653 5.15137 26.3052C5.43066 25.8989 5.57031 24.9722 5.57031 23.5249V5.56738C4.82129 4.69141 4.25 4.11377 3.85645 3.83447C3.47559 3.55518 2.91064 3.29492 2.16162 3.05371C1.79346 2.93945 1.23486 2.88232 0.48584 2.88232V2.17773ZM47.2938 10.5566V21.1255C47.2938 23.144 47.3383 24.3818 47.4271 24.8389C47.5287 25.2832 47.6811 25.5942 47.8842 25.772C48.1 25.9497 48.3476 26.0386 48.6269 26.0386C49.0204 26.0386 49.4647 25.9307 49.9599 25.7148L50.2265 26.3813L45.0087 28.5332H44.1518V24.8389C42.6537 26.4639 41.5111 27.4858 40.724 27.9048C39.9369 28.3237 39.1054 28.5332 38.2294 28.5332C37.2519 28.5332 36.4013 28.2539 35.6776 27.6953C34.9667 27.124 34.4716 26.394 34.1923 25.5054C33.913 24.6167 33.7733 23.3599 33.7733 21.7349V13.9463C33.7733 13.1211 33.6845 12.5498 33.5067 12.2324C33.329 11.915 33.0624 11.6738 32.7069 11.5088C32.3642 11.3311 31.7357 11.2485 30.8217 11.2612V10.5566H36.9345V22.23C36.9345 23.855 37.2138 24.9214 37.7724 25.4292C38.3437 25.937 39.0292 26.1909 39.829 26.1909C40.3749 26.1909 40.9906 26.0195 41.6762 25.6768C42.3744 25.334 43.1996 24.6802 44.1518 23.7153V13.832C44.1518 12.8418 43.9677 12.1753 43.5995 11.8325C43.244 11.4771 42.495 11.2866 41.3524 11.2612V10.5566H47.2938ZM65.4231 26.0386C64.5726 26.9272 63.741 27.5684 62.9285 27.9619C62.116 28.3428 61.24 28.5332 60.3006 28.5332C58.3963 28.5332 56.7332 27.7397 55.3113 26.1528C53.8895 24.5532 53.1785 22.5029 53.1785 20.002C53.1785 17.501 53.9656 15.2158 55.5398 13.1465C57.1141 11.0645 59.139 10.0234 61.6146 10.0234C63.1507 10.0234 64.4202 10.5122 65.4231 11.4897V8.27148C65.4231 6.27832 65.3724 5.05322 65.2708 4.59619C65.1819 4.13916 65.0359 3.82813 64.8328 3.66309C64.6297 3.49805 64.3758 3.41553 64.0711 3.41553C63.741 3.41553 63.303 3.51709 62.7571 3.72021L62.5096 3.05371L67.7083 0.920898H68.5652V21.0874C68.5652 23.1313 68.6097 24.3818 68.6985 24.8389C68.8001 25.2832 68.9524 25.5942 69.1556 25.772C69.3714 25.9497 69.6189 26.0386 69.8982 26.0386C70.241 26.0386 70.698 25.9307 71.2693 25.7148L71.4788 26.3813L66.2991 28.5332H65.4231V26.0386ZM65.4231 24.7056V15.7173C65.347 14.854 65.1185 14.0669 64.7376 13.356C64.3567 12.645 63.8489 12.1118 63.2142 11.7563C62.5921 11.3882 61.9827 11.2041 61.386 11.2041C60.2688 11.2041 59.2723 11.7056 58.3963 12.7085C57.241 14.0288 56.6634 15.9585 56.6634 18.4976C56.6634 21.062 57.222 23.0298 58.3392 24.4009C59.4563 25.7593 60.7005 26.4385 62.0716 26.4385C63.2269 26.4385 64.344 25.8608 65.4231 24.7056ZM77.135 17.1265C77.1223 19.7163 77.7507 21.7476 79.0202 23.2202C80.2897 24.6929 81.7814 25.4292 83.4953 25.4292C84.6379 25.4292 85.6281 25.1182 86.466 24.4961C87.3166 23.8613 88.0275 22.7822 88.5988 21.2588L89.1892 21.6396C88.9226 23.3789 88.1481 24.9658 86.8659 26.4004C85.5837 27.8223 83.9777 28.5332 82.048 28.5332C79.9533 28.5332 78.1569 27.7207 76.6589 26.0957C75.1735 24.458 74.4309 22.2617 74.4309 19.5068C74.4309 16.5234 75.1926 14.2002 76.716 12.5371C78.2522 10.8613 80.1755 10.0234 82.486 10.0234C84.4411 10.0234 86.0471 10.6709 87.3039 11.9658C88.5607 13.248 89.1892 14.9683 89.1892 17.1265H77.135ZM77.135 16.022H85.2092C85.1457 14.9048 85.0124 14.1177 84.8093 13.6606C84.4919 12.9497 84.0158 12.3911 83.3811 11.9849C82.759 11.5786 82.1052 11.3755 81.4196 11.3755C80.3659 11.3755 79.4201 11.7881 78.5822 12.6133C77.757 13.4258 77.2746 14.562 77.135 16.022Z" fill="#3E3E42"/>
</svg>
